<svg width="30" height="30" viewBox="0 0 30 30" fill="none" xmlns="http://www.w3.org/2000/svg">
<mask id="mask0_56_175" style="mask-type:alpha" maskUnits="userSpaceOnUse" x="0" y="0" width="30" height="30">
<rect width="30" height="30" fill="#D9D9D9"/>
</mask>
<g mask="url(#mask0_56_175)">
<path d="M8.71879 26.469C8.46879 26.198 8.33854 25.8802 8.32804 25.5157C8.31754 25.1512 8.44779 24.8335 8.71879 24.5625L18.3435 14.9685L8.71879 5.34372C8.46879 5.09372 8.33854 4.78122 8.32804 4.40622C8.31754 4.03122 8.44779 3.70822 8.71879 3.43722C8.98979 3.16672 9.30754 3.02622 9.67204 3.01572C10.0365 3.00522 10.3543 3.13547 10.6253 3.40647L21.4373 14.2185C21.5623 14.3435 21.6458 14.4635 21.6878 14.5785C21.7293 14.693 21.75 14.823 21.75 14.9685C21.75 15.0935 21.7293 15.2185 21.6878 15.3435C21.6458 15.4685 21.5623 15.5832 21.4373 15.6877L10.6253 26.4997C10.3753 26.7497 10.0628 26.8747 9.68779 26.8747C9.31279 26.8747 8.98979 26.7395 8.71879 26.469Z" fill="#090909"/>
</g>
</svg>
