<svg width="30" height="30" viewBox="0 0 30 30" fill="none" xmlns="http://www.w3.org/2000/svg">
<mask id="mask0_56_178" style="mask-type:alpha" maskUnits="userSpaceOnUse" x="0" y="0" width="30" height="30">
<rect x="30" width="30" height="30" transform="rotate(90 30 0)" fill="#D9D9D9"/>
</mask>
<g mask="url(#mask0_56_178)">
<path d="M3.53102 8.71873C3.80202 8.46873 4.11978 8.33848 4.48428 8.32798C4.84878 8.31748 5.16652 8.44773 5.43752 8.71873L15.0315 18.3435L24.6563 8.71873C24.9063 8.46873 25.2188 8.33848 25.5938 8.32798C25.9688 8.31748 26.2918 8.44773 26.5628 8.71873C26.8333 8.98973 26.9738 9.30748 26.9843 9.67198C26.9948 10.0365 26.8645 10.3542 26.5935 10.6252L15.7815 21.4372C15.6565 21.5622 15.5365 21.6457 15.4215 21.6877C15.307 21.7292 15.177 21.75 15.0315 21.75C14.9065 21.75 14.7815 21.7292 14.6565 21.6877C14.5315 21.6457 14.4168 21.5622 14.3123 21.4372L3.50027 10.6252C3.25027 10.3752 3.12527 10.0627 3.12527 9.68773C3.12527 9.31273 3.26052 8.98973 3.53102 8.71873Z" fill="#090909"/>
</g>
</svg>
