<svg width="22" height="16" viewBox="0 0 22 16" fill="none" xmlns="http://www.w3.org/2000/svg">
<path d="M7.52914 15.8977C7.34025 15.8977 7.16317 15.8679 6.99789 15.8084C6.83261 15.7498 6.67914 15.6497 6.53747 15.5081L0.445804 9.41641C0.186082 9.15668 0.0618872 8.81999 0.0732206 8.40632C0.0854983 7.9936 0.221498 7.65738 0.48122 7.39766C0.740942 7.13793 1.0715 7.00807 1.47289 7.00807C1.87428 7.00807 2.20483 7.13793 2.46455 7.39766L7.52914 12.4622L19.5354 0.45599C19.7951 0.196267 20.1318 0.0664062 20.5455 0.0664062C20.9582 0.0664062 21.2944 0.196267 21.5541 0.45599C21.8139 0.715712 21.9437 1.05193 21.9437 1.46466C21.9437 1.87832 21.8139 2.21502 21.5541 2.47474L8.5208 15.5081C8.37914 15.6497 8.22567 15.7498 8.06039 15.8084C7.89511 15.8679 7.71803 15.8977 7.52914 15.8977Z" fill="#F3F4F6"/>
</svg>
