<svg width="83" height="35" viewBox="0 0 83 35" fill="none" xmlns="http://www.w3.org/2000/svg">
<path d="M0.444 34C0.292 34 0.216 33.886 0.216 33.658C0.216 33.4047 0.292 33.126 0.444 32.822C0.596 32.518 0.786 32.2647 1.014 32.062C1.64733 31.5553 2.06533 31.188 2.268 30.96C2.496 30.7067 2.67333 30.4153 2.8 30.086C2.92667 29.7567 3.07867 29.174 3.256 28.338L7.17 10.06H6.904C6.752 10.06 6.42267 10.0347 5.916 9.984C5.004 9.908 4.51 9.87 4.434 9.87C3.01533 9.87 1.93867 10.3387 1.204 11.276C1.15333 11.352 1.06467 11.4913 0.938 11.694C0.811333 11.8713 0.697333 11.96 0.596 11.96C0.469333 11.96 0.406 11.846 0.406 11.618C0.406 11.3647 0.444 11.1493 0.52 10.972C0.773333 9.908 1.318 9.08467 2.154 8.502C2.99 7.91933 4.016 7.628 5.232 7.628L6.486 7.666C7.19533 7.71667 7.76533 7.742 8.196 7.742C8.60133 7.742 9.05733 7.71667 9.564 7.666L10.552 7.628C10.4507 7.95733 10.4 8.43867 10.4 9.072C10.4 9.908 10.514 10.972 10.742 12.264C10.9953 13.5307 11.3753 15.2787 11.882 17.508L13.06 23.018C13.1107 23.246 13.2753 24.1707 13.554 25.792C14.618 23.6893 16.024 20.9027 17.772 17.432C19.5453 13.936 20.9893 11.0987 22.104 8.92C23.0667 7.096 23.9533 5.66466 24.764 4.626C25.6 3.562 26.4613 2.726 27.348 2.118C28.0827 1.63667 28.83 1.29466 29.59 1.092C30.35 0.863998 31.2873 0.711998 32.402 0.635999C33.2633 0.585332 33.8207 0.509331 34.074 0.407998C34.1247 0.382665 34.1753 0.357332 34.226 0.331999C34.302 0.281331 34.3653 0.255997 34.416 0.255997C34.5427 0.255997 34.606 0.357331 34.606 0.559998C34.606 1.42133 33.8207 1.97867 32.25 2.232C32.1487 2.25733 31.832 2.308 31.3 2.384C30.768 2.46 30.236 2.59933 29.704 2.802C29.1973 2.97933 28.754 3.22 28.374 3.524C27.538 4.18267 26.816 5.272 26.208 6.792C25.6 8.28667 25.106 10.4147 24.726 13.176C24.5487 14.2907 24.3333 16.292 24.08 19.18C23.776 22.98 23.358 26.5267 22.826 29.82C22.75 30.428 22.5093 30.96 22.104 31.416V31.454C22.7373 31.682 23.2693 31.796 23.7 31.796C24.0547 31.796 24.422 31.7327 24.802 31.606C25.182 31.454 25.41 31.378 25.486 31.378C25.6127 31.378 25.676 31.454 25.676 31.606C25.676 31.8087 25.5113 32.0873 25.182 32.442C24.2953 33.4807 23.5353 34 22.902 34C22.6993 34 22.218 33.8987 21.458 33.696C20.546 33.468 19.9507 33.354 19.672 33.354C19.216 33.354 18.7347 33.468 18.228 33.696C17.7467 33.8987 17.4807 34 17.43 34C17.278 34 17.202 33.886 17.202 33.658C17.202 33.43 17.278 33.1767 17.43 32.898C17.582 32.594 17.81 32.3153 18.114 32.062C18.8487 31.53 19.3173 31.1247 19.52 30.846C19.748 30.5673 19.9 30.1873 19.976 29.706L20.166 27.996C20.4447 25.4627 20.7107 23.0053 20.964 20.624C21.2427 18.2427 21.496 16.0133 21.724 13.936H21.648C17.7467 20.852 15.2387 25.8173 14.124 28.832C13.744 29.6427 13.3007 30.4407 12.794 31.226C12.2873 32.0113 11.92 32.404 11.692 32.404C11.4893 32.404 11.388 32.2773 11.388 32.024C11.312 30.4787 11.1853 29.1487 11.008 28.034C10.856 26.894 10.5267 25.0953 10.02 22.638C9.61467 20.6113 9.412 19.598 9.412 19.598C8.93067 17.47 8.58867 15.7727 8.386 14.506H8.348L5.156 29.82C5.08 30.4533 4.852 30.9853 4.472 31.416V31.454C5.156 31.682 5.66267 31.796 5.992 31.796C6.296 31.796 6.58733 31.7327 6.866 31.606C7.14467 31.454 7.322 31.378 7.398 31.378C7.52467 31.378 7.588 31.454 7.588 31.606C7.588 31.834 7.42333 32.1127 7.094 32.442C6.13133 33.4807 5.37133 34 4.814 34C4.586 34 4.21867 33.8987 3.712 33.696C3.636 33.6707 3.446 33.6073 3.142 33.506C2.86333 33.4047 2.58467 33.354 2.306 33.354C1.90067 33.354 1.508 33.468 1.128 33.696C0.748 33.8987 0.52 34 0.444 34ZM31.6925 34.38C30.6285 34.38 30.0965 33.582 30.0965 31.986C30.0965 31.2007 30.2231 30.086 30.4765 28.642L31.7685 20.814C31.8698 19.902 31.9205 19.3827 31.9205 19.256C31.9205 18.876 31.8191 18.686 31.6165 18.686C31.0338 18.686 30.3498 19.446 29.5645 20.966C29.5138 21.0673 29.4251 21.2447 29.2985 21.498C29.1971 21.726 29.1085 21.878 29.0325 21.954C28.9565 22.0047 28.8805 22.03 28.8045 22.03C28.7538 22.03 28.7031 21.992 28.6525 21.916C28.6018 21.8147 28.5765 21.7007 28.5765 21.574C28.5765 21.0673 28.8298 20.358 29.3365 19.446C29.8685 18.5087 30.5145 17.6853 31.2745 16.976C32.0345 16.2667 32.7565 15.912 33.4405 15.912C33.8458 15.912 34.1625 16.0893 34.3905 16.444C34.6438 16.7733 34.7705 17.2293 34.7705 17.812C34.7705 18.192 34.7451 18.4833 34.6945 18.686L32.9085 29.896C32.8578 30.2507 32.8325 30.4787 32.8325 30.58C32.8325 31.112 33.0351 31.378 33.4405 31.378C34.2765 31.378 35.1758 30.8207 36.1385 29.706C37.1265 28.566 37.9878 27.2107 38.7225 25.64C39.4825 24.0693 39.9765 22.6887 40.2045 21.498L40.7365 18.724C40.9391 17.812 41.3445 17.1153 41.9525 16.634C42.5858 16.1527 43.1685 15.912 43.7005 15.912C43.9031 15.912 44.0045 15.9753 44.0045 16.102C44.0045 16.178 43.9538 16.33 43.8525 16.558C43.7511 16.7607 43.6751 17.014 43.6245 17.318C43.2698 18.8887 42.5731 22.5367 41.5345 28.262L41.3065 29.478C41.1291 30.3647 41.0405 30.9093 41.0405 31.112C41.0405 31.4667 41.1545 31.644 41.3825 31.644C41.7878 31.644 42.2311 31.3273 42.7125 30.694C43.2191 30.0353 43.6245 29.326 43.9285 28.566C44.0805 28.2873 44.2071 28.148 44.3085 28.148C44.4605 28.148 44.5365 28.262 44.5365 28.49C44.5365 28.7687 44.5111 29.0093 44.4605 29.212C44.2831 30.124 43.9285 30.9727 43.3965 31.758C42.8645 32.5433 42.2691 33.1767 41.6105 33.658C40.9518 34.1393 40.3438 34.38 39.7865 34.38C38.7985 34.38 38.3298 33.5947 38.3805 32.024C38.4311 31.34 38.5831 30.4153 38.8365 29.25L39.1785 27.388H39.1405C37.8231 29.4907 36.4805 31.188 35.1125 32.48C33.7445 33.7467 32.6045 34.38 31.6925 34.38ZM49.3625 34.38C48.5771 34.38 47.9058 34.1647 47.3485 33.734C46.7911 33.3033 46.4238 32.7333 46.2465 32.024C46.1958 31.8213 46.2718 31.5047 46.4745 31.074C46.7025 30.618 46.9938 30.1747 47.3485 29.744C47.5511 29.516 47.7158 29.402 47.8425 29.402C47.9691 29.402 48.0705 29.5033 48.1465 29.706C48.9065 31.4793 49.9578 32.366 51.3005 32.366C51.9845 32.366 52.5165 32.1633 52.8965 31.758C53.3018 31.3273 53.5045 30.7573 53.5045 30.048C53.5045 29.0853 52.9598 27.844 51.8705 26.324L51.0725 25.184C50.4645 24.3227 50.0338 23.6133 49.7805 23.056C49.5525 22.4987 49.4385 21.9033 49.4385 21.27C49.4385 20.2567 49.7045 19.3447 50.2365 18.534C50.7938 17.7233 51.5158 17.09 52.4025 16.634C53.2891 16.1527 54.2138 15.912 55.1765 15.912C57.0005 15.912 57.9125 16.5327 57.9125 17.774C57.9125 18.23 57.7478 18.686 57.4185 19.142C57.2411 19.446 57.0891 19.598 56.9625 19.598C56.8105 19.598 56.6711 19.446 56.5445 19.142C56.2658 18.6607 55.9238 18.3187 55.5185 18.116C55.1385 17.888 54.6445 17.774 54.0365 17.774C53.3271 17.774 52.7571 17.964 52.3265 18.344C51.8958 18.724 51.6805 19.2053 51.6805 19.788C51.6805 20.1173 51.7818 20.4973 51.9845 20.928C52.2125 21.3333 52.6305 21.9667 53.2385 22.828L54.0365 23.93C54.7458 24.8673 55.2398 25.678 55.5185 26.362C55.7971 27.0207 55.9365 27.7173 55.9365 28.452C55.9365 29.3893 55.6325 30.3267 55.0245 31.264C54.4165 32.176 53.6058 32.9233 52.5925 33.506C51.5791 34.0887 50.5025 34.38 49.3625 34.38ZM64.9799 13.746C64.7265 13.746 64.6125 13.6193 64.6379 13.366L65.0939 10.706C65.2205 9.97133 65.4865 9.414 65.8919 9.034C66.3225 8.62867 66.8545 8.426 67.4879 8.426H67.6399C67.7919 8.426 67.8805 8.45133 67.9059 8.502C67.9565 8.55267 67.9692 8.654 67.9439 8.806L67.5259 11.428C67.4245 12.1373 67.1585 12.7073 66.7279 13.138C66.2972 13.5433 65.7652 13.746 65.1319 13.746H64.9799ZM62.7379 34.38C61.9272 34.38 61.5219 33.7973 61.5219 32.632C61.5219 32.0493 61.5979 31.378 61.7499 30.618L63.5739 20.472C63.6752 19.8133 63.7259 19.408 63.7259 19.256C63.7259 18.876 63.6119 18.686 63.3839 18.686C63.0799 18.686 62.7125 18.9267 62.2819 19.408C61.8512 19.8893 61.3825 20.6493 60.8759 21.688C60.7745 21.992 60.6479 22.144 60.4959 22.144C60.3439 22.144 60.2679 22.0173 60.2679 21.764C60.2679 21.156 60.5339 20.3833 61.0659 19.446C61.6232 18.4833 62.2945 17.66 63.0799 16.976C63.8905 16.2667 64.6379 15.912 65.3219 15.912C66.1072 15.912 66.4999 16.4693 66.4999 17.584C66.4999 18.116 66.4239 18.8127 66.2719 19.674L64.2959 30.656L64.2199 31.15C64.2199 31.4287 64.3339 31.568 64.5619 31.568C64.8659 31.568 65.2332 31.3273 65.6639 30.846C66.0945 30.3393 66.5632 29.5793 67.0699 28.566C67.1965 28.2873 67.3232 28.148 67.4499 28.148C67.6019 28.148 67.6779 28.3127 67.6779 28.642C67.6779 29.2247 67.3992 29.9847 66.8419 30.922C66.3099 31.834 65.6512 32.6447 64.8659 33.354C64.0805 34.038 63.3712 34.38 62.7379 34.38ZM73.6154 34.38C72.526 34.38 71.7154 33.8987 71.1834 32.936C70.6514 31.948 70.3854 30.7827 70.3854 29.44C70.3854 27.5147 70.8414 25.488 71.7534 23.36C72.6907 21.232 73.894 19.4587 75.3634 18.04C76.8327 16.6213 78.3527 15.912 79.9234 15.912C80.6074 15.912 81.1394 16.0513 81.5194 16.33C81.9247 16.5833 82.1274 16.9253 82.1274 17.356C82.1274 17.7613 81.9754 18.23 81.6714 18.762C81.494 19.066 81.3294 19.218 81.1774 19.218C81.076 19.218 80.9874 19.1547 80.9114 19.028C80.354 18.2933 79.6574 17.926 78.8214 17.926C77.808 17.926 76.858 18.3567 75.9714 19.218C75.11 20.054 74.426 21.1813 73.9194 22.6C73.4127 24.0187 73.1594 25.5513 73.1594 27.198C73.1594 30.0353 73.9447 31.454 75.5154 31.454C76.326 31.454 77.0227 31.15 77.6054 30.542C78.188 29.934 78.7327 29.1867 79.2394 28.3C79.29 28.224 79.3534 28.1227 79.4294 27.996C79.5054 27.8693 79.5687 27.7807 79.6194 27.73C79.6954 27.6793 79.784 27.654 79.8854 27.654C79.9614 27.654 80.0247 27.7047 80.0754 27.806C80.126 27.882 80.1514 27.9833 80.1514 28.11C80.1514 28.8447 79.8094 29.7187 79.1254 30.732C78.4414 31.72 77.58 32.5813 76.5414 33.316C75.528 34.0253 74.5527 34.38 73.6154 34.38Z" fill="white"/>
</svg>
