<svg width="70" height="30" viewBox="0 0 70 30" fill="none" xmlns="http://www.w3.org/2000/svg">
<path d="M0.216 29C0.0880001 29 0.024 28.904 0.024 28.712C0.024 28.4987 0.0880001 28.264 0.216 28.008C0.344 27.752 0.504 27.5387 0.696 27.368C1.22933 26.9413 1.58133 26.632 1.752 26.44C1.944 26.2267 2.09333 25.9813 2.2 25.704C2.30667 25.4267 2.43467 24.936 2.584 24.232L5.88 8.84H5.656C5.528 8.84 5.25067 8.81867 4.824 8.776C4.056 8.712 3.64 8.68 3.576 8.68C2.38133 8.68 1.47467 9.07467 0.856 9.864C0.813333 9.928 0.738667 10.0453 0.632 10.216C0.525333 10.3653 0.429333 10.44 0.344 10.44C0.237333 10.44 0.184 10.344 0.184 10.152C0.184 9.93867 0.216 9.75733 0.28 9.608C0.493333 8.712 0.952 8.01867 1.656 7.528C2.36 7.03733 3.224 6.792 4.248 6.792L5.304 6.824C5.90133 6.86667 6.38133 6.888 6.744 6.888C7.08533 6.888 7.46933 6.86667 7.896 6.824L8.728 6.792C8.64267 7.06933 8.6 7.47467 8.6 8.008C8.6 8.712 8.696 9.608 8.888 10.696C9.10133 11.7627 9.42133 13.2347 9.848 15.112L10.84 19.752C10.8827 19.944 11.0213 20.7227 11.256 22.088C12.152 20.3173 13.336 17.9707 14.808 15.048C16.3013 12.104 17.5173 9.71467 18.456 7.88C19.2667 6.344 20.0133 5.13866 20.696 4.264C21.4 3.368 22.1253 2.664 22.872 2.152C23.4907 1.74667 24.12 1.45867 24.76 1.288C25.4 1.096 26.1893 0.967999 27.128 0.903999C27.8533 0.861332 28.3227 0.797331 28.536 0.711998C28.5787 0.690665 28.6213 0.669332 28.664 0.647999C28.728 0.605331 28.7813 0.583998 28.824 0.583998C28.9307 0.583998 28.984 0.669331 28.984 0.839998C28.984 1.56533 28.3227 2.03467 27 2.248C26.9147 2.26933 26.648 2.312 26.2 2.376C25.752 2.44 25.304 2.55733 24.856 2.728C24.4293 2.87733 24.056 3.08 23.736 3.336C23.032 3.89067 22.424 4.808 21.912 6.088C21.4 7.34667 20.984 9.13867 20.664 11.464C20.5147 12.4027 20.3333 14.088 20.12 16.52C19.864 19.72 19.512 22.7067 19.064 25.48C19 25.992 18.7973 26.44 18.456 26.824V26.856C18.9893 27.048 19.4373 27.144 19.8 27.144C20.0987 27.144 20.408 27.0907 20.728 26.984C21.048 26.856 21.24 26.792 21.304 26.792C21.4107 26.792 21.464 26.856 21.464 26.984C21.464 27.1547 21.3253 27.3893 21.048 27.688C20.3013 28.5627 19.6613 29 19.128 29C18.9573 29 18.552 28.9147 17.912 28.744C17.144 28.552 16.6427 28.456 16.408 28.456C16.024 28.456 15.6187 28.552 15.192 28.744C14.7867 28.9147 14.5627 29 14.52 29C14.392 29 14.328 28.904 14.328 28.712C14.328 28.52 14.392 28.3067 14.52 28.072C14.648 27.816 14.84 27.5813 15.096 27.368C15.7147 26.92 16.1093 26.5787 16.28 26.344C16.472 26.1093 16.6 25.7893 16.664 25.384L16.824 23.944C17.0587 21.8107 17.2827 19.7413 17.496 17.736C17.7307 15.7307 17.944 13.8533 18.136 12.104H18.072C14.7867 17.928 12.6747 22.1093 11.736 24.648C11.416 25.3307 11.0427 26.0027 10.616 26.664C10.1893 27.3253 9.88 27.656 9.688 27.656C9.51733 27.656 9.432 27.5493 9.432 27.336C9.368 26.0347 9.26133 24.9147 9.112 23.976C8.984 23.016 8.70667 21.5013 8.28 19.432C7.93867 17.7253 7.768 16.872 7.768 16.872C7.36267 15.08 7.07467 13.6507 6.904 12.584H6.872L4.184 25.48C4.12 26.0133 3.928 26.4613 3.608 26.824V26.856C4.184 27.048 4.61067 27.144 4.888 27.144C5.144 27.144 5.38933 27.0907 5.624 26.984C5.85867 26.856 6.008 26.792 6.072 26.792C6.17867 26.792 6.232 26.856 6.232 26.984C6.232 27.176 6.09333 27.4107 5.816 27.688C5.00533 28.5627 4.36533 29 3.896 29C3.704 29 3.39467 28.9147 2.968 28.744C2.904 28.7227 2.744 28.6693 2.488 28.584C2.25333 28.4987 2.01867 28.456 1.784 28.456C1.44267 28.456 1.112 28.552 0.792 28.744C0.472 28.9147 0.28 29 0.216 29ZM26.5305 29.32C25.6345 29.32 25.1865 28.648 25.1865 27.304C25.1865 26.6427 25.2932 25.704 25.5065 24.488L26.5945 17.896C26.6798 17.128 26.7225 16.6907 26.7225 16.584C26.7225 16.264 26.6372 16.104 26.4665 16.104C25.9758 16.104 25.3998 16.744 24.7385 18.024C24.6958 18.1093 24.6212 18.2587 24.5145 18.472C24.4292 18.664 24.3545 18.792 24.2905 18.856C24.2265 18.8987 24.1625 18.92 24.0985 18.92C24.0558 18.92 24.0132 18.888 23.9705 18.824C23.9278 18.7387 23.9065 18.6427 23.9065 18.536C23.9065 18.1093 24.1198 17.512 24.5465 16.744C24.9945 15.9547 25.5385 15.2613 26.1785 14.664C26.8185 14.0667 27.4265 13.768 28.0025 13.768C28.3438 13.768 28.6105 13.9173 28.8025 14.216C29.0158 14.4933 29.1225 14.8773 29.1225 15.368C29.1225 15.688 29.1012 15.9333 29.0585 16.104L27.5545 25.544C27.5118 25.8427 27.4905 26.0347 27.4905 26.12C27.4905 26.568 27.6612 26.792 28.0025 26.792C28.7065 26.792 29.4638 26.3227 30.2745 25.384C31.1065 24.424 31.8318 23.2827 32.4505 21.96C33.0905 20.6373 33.5065 19.4747 33.6985 18.472L34.1465 16.136C34.3172 15.368 34.6585 14.7813 35.1705 14.376C35.7038 13.9707 36.1945 13.768 36.6425 13.768C36.8132 13.768 36.8985 13.8213 36.8985 13.928C36.8985 13.992 36.8558 14.12 36.7705 14.312C36.6852 14.4827 36.6212 14.696 36.5785 14.952C36.2798 16.2747 35.6932 19.3467 34.8185 24.168L34.6265 25.192C34.4772 25.9387 34.4025 26.3973 34.4025 26.568C34.4025 26.8667 34.4985 27.016 34.6905 27.016C35.0318 27.016 35.4052 26.7493 35.8105 26.216C36.2372 25.6613 36.5785 25.064 36.8345 24.424C36.9625 24.1893 37.0692 24.072 37.1545 24.072C37.2825 24.072 37.3465 24.168 37.3465 24.36C37.3465 24.5947 37.3252 24.7973 37.2825 24.968C37.1332 25.736 36.8345 26.4507 36.3865 27.112C35.9385 27.7733 35.4372 28.3067 34.8825 28.712C34.3278 29.1173 33.8158 29.32 33.3465 29.32C32.5145 29.32 32.1198 28.6587 32.1625 27.336C32.2052 26.76 32.3332 25.9813 32.5465 25L32.8345 23.432H32.8025C31.6932 25.2027 30.5625 26.632 29.4105 27.72C28.2585 28.7867 27.2985 29.32 26.5305 29.32ZM41.4105 29.32C40.7492 29.32 40.1838 29.1387 39.7145 28.776C39.2452 28.4133 38.9358 27.9333 38.7865 27.336C38.7438 27.1653 38.8078 26.8987 38.9785 26.536C39.1705 26.152 39.4158 25.7787 39.7145 25.416C39.8852 25.224 40.0238 25.128 40.1305 25.128C40.2372 25.128 40.3225 25.2133 40.3865 25.384C41.0265 26.8773 41.9118 27.624 43.0425 27.624C43.6185 27.624 44.0665 27.4533 44.3865 27.112C44.7278 26.7493 44.8985 26.2693 44.8985 25.672C44.8985 24.8613 44.4398 23.816 43.5225 22.536L42.8505 21.576C42.3385 20.8507 41.9758 20.2533 41.7625 19.784C41.5705 19.3147 41.4745 18.8133 41.4745 18.28C41.4745 17.4267 41.6985 16.6587 42.1465 15.976C42.6158 15.2933 43.2238 14.76 43.9705 14.376C44.7172 13.9707 45.4958 13.768 46.3065 13.768C47.8425 13.768 48.6105 14.2907 48.6105 15.336C48.6105 15.72 48.4718 16.104 48.1945 16.488C48.0452 16.744 47.9172 16.872 47.8105 16.872C47.6825 16.872 47.5652 16.744 47.4585 16.488C47.2238 16.0827 46.9358 15.7947 46.5945 15.624C46.2745 15.432 45.8585 15.336 45.3465 15.336C44.7492 15.336 44.2692 15.496 43.9065 15.816C43.5438 16.136 43.3625 16.5413 43.3625 17.032C43.3625 17.3093 43.4478 17.6293 43.6185 17.992C43.8105 18.3333 44.1625 18.8667 44.6745 19.592L45.3465 20.52C45.9438 21.3093 46.3598 21.992 46.5945 22.568C46.8292 23.1227 46.9465 23.7093 46.9465 24.328C46.9465 25.1173 46.6905 25.9067 46.1785 26.696C45.6665 27.464 44.9838 28.0933 44.1305 28.584C43.2772 29.0747 42.3705 29.32 41.4105 29.32ZM54.562 11.944C54.3487 11.944 54.2527 11.8373 54.274 11.624L54.658 9.384C54.7647 8.76533 54.9887 8.296 55.33 7.976C55.6927 7.63467 56.1407 7.464 56.674 7.464H56.802C56.93 7.464 57.0047 7.48533 57.026 7.528C57.0687 7.57067 57.0793 7.656 57.058 7.784L56.706 9.992C56.6207 10.5893 56.3967 11.0693 56.034 11.432C55.6713 11.7733 55.2233 11.944 54.69 11.944H54.562ZM52.674 29.32C51.9913 29.32 51.65 28.8293 51.65 27.848C51.65 27.3573 51.714 26.792 51.842 26.152L53.378 17.608C53.4633 17.0533 53.506 16.712 53.506 16.584C53.506 16.264 53.41 16.104 53.218 16.104C52.962 16.104 52.6527 16.3067 52.29 16.712C51.9273 17.1173 51.5327 17.7573 51.106 18.632C51.0207 18.888 50.914 19.016 50.786 19.016C50.658 19.016 50.594 18.9093 50.594 18.696C50.594 18.184 50.818 17.5333 51.266 16.744C51.7353 15.9333 52.3007 15.24 52.962 14.664C53.6447 14.0667 54.274 13.768 54.85 13.768C55.5113 13.768 55.842 14.2373 55.842 15.176C55.842 15.624 55.778 16.2107 55.65 16.936L53.986 26.184L53.922 26.6C53.922 26.8347 54.018 26.952 54.21 26.952C54.466 26.952 54.7753 26.7493 55.138 26.344C55.5007 25.9173 55.8953 25.2773 56.322 24.424C56.4287 24.1893 56.5353 24.072 56.642 24.072C56.77 24.072 56.834 24.2107 56.834 24.488C56.834 24.9787 56.5993 25.6187 56.13 26.408C55.682 27.176 55.1273 27.8587 54.466 28.456C53.8047 29.032 53.2073 29.32 52.674 29.32ZM61.834 29.32C60.9167 29.32 60.234 28.9147 59.786 28.104C59.338 27.272 59.114 26.2907 59.114 25.16C59.114 23.5387 59.498 21.832 60.266 20.04C61.0553 18.248 62.0687 16.7547 63.306 15.56C64.5433 14.3653 65.8233 13.768 67.146 13.768C67.722 13.768 68.17 13.8853 68.49 14.12C68.8313 14.3333 69.002 14.6213 69.002 14.984C69.002 15.3253 68.874 15.72 68.618 16.168C68.4687 16.424 68.33 16.552 68.202 16.552C68.1167 16.552 68.042 16.4987 67.978 16.392C67.5087 15.7733 66.922 15.464 66.218 15.464C65.3647 15.464 64.5647 15.8267 63.818 16.552C63.0927 17.256 62.5167 18.2053 62.09 19.4C61.6633 20.5947 61.45 21.8853 61.45 23.272C61.45 25.6613 62.1113 26.856 63.434 26.856C64.1167 26.856 64.7033 26.6 65.194 26.088C65.6847 25.576 66.1433 24.9467 66.57 24.2C66.6127 24.136 66.666 24.0507 66.73 23.944C66.794 23.8373 66.8473 23.7627 66.89 23.72C66.954 23.6773 67.0287 23.656 67.114 23.656C67.178 23.656 67.2313 23.6987 67.274 23.784C67.3167 23.848 67.338 23.9333 67.338 24.04C67.338 24.6587 67.05 25.3947 66.474 26.248C65.898 27.08 65.1727 27.8053 64.298 28.424C63.4447 29.0213 62.6233 29.32 61.834 29.32Z" fill="white"/>
</svg>
