<svg width="87" height="35" viewBox="0 0 87 35" fill="none" xmlns="http://www.w3.org/2000/svg">
<path d="M1.444 34C1.292 34 1.216 33.848 1.216 33.544C1.216 33.1893 1.30467 32.86 1.482 32.556C1.68467 32.252 1.98867 31.9227 2.394 31.568C2.79933 31.1627 3.09067 30.846 3.268 30.618C3.44533 30.39 3.59733 30.0607 3.724 29.63C3.876 29.1993 4.05333 28.5407 4.256 27.654L7.714 11.01H7.486C7.35933 11.01 7.09333 10.9847 6.688 10.934C6.18133 10.8327 5.64933 10.782 5.092 10.782C4.35733 10.782 3.73667 10.8833 3.23 11.086C2.74867 11.2887 2.30533 11.656 1.9 12.188C1.77333 12.3653 1.64667 12.5173 1.52 12.644C1.39333 12.7453 1.27933 12.796 1.178 12.796C0.95 12.796 0.836 12.6693 0.836 12.416C0.836 12.1627 0.861333 11.96 0.912 11.808C1.16533 10.516 1.786 9.50266 2.774 8.768C3.762 8.008 5.00333 7.628 6.498 7.628C6.802 7.628 7.28333 7.65333 7.942 7.704C8.52467 7.78 9.13267 7.818 9.766 7.818C9.994 7.818 10.564 7.78 11.476 7.704C11.932 7.65333 12.2487 7.628 12.426 7.628C12.3753 8.28667 12.35 8.85666 12.35 9.338C12.35 10.2753 12.464 11.3647 12.692 12.606C12.92 13.822 13.2873 15.532 13.794 17.736L14.972 22.79C15.1493 23.2967 15.2633 23.74 15.314 24.12C17.9233 19.408 19.646 16.2413 20.482 14.62C21.3433 12.9733 22.0653 11.5167 22.648 10.25C22.952 9.642 23.1927 9.13533 23.37 8.73C24.3833 6.65267 25.2953 5.082 26.106 4.018C26.942 2.954 27.93 2.14333 29.07 1.586C29.83 1.206 30.6407 0.952666 31.502 0.825999C32.3633 0.699332 33.364 0.635999 34.504 0.635999C35.0867 0.635999 35.5173 0.585332 35.796 0.483999C35.9733 0.433331 36.1253 0.382665 36.252 0.331999C36.3787 0.281331 36.48 0.255997 36.556 0.255997C36.7587 0.255997 36.86 0.395331 36.86 0.673999C36.86 1.206 36.5433 1.72533 35.91 2.232C35.2767 2.73867 34.6053 2.992 33.896 2.992C33.06 3.01733 32.376 3.068 31.844 3.144C31.312 3.22 30.7927 3.372 30.286 3.6C29.3233 4.056 28.5887 4.87933 28.082 6.07C27.5753 7.26067 27.1573 9.034 26.828 11.39C26.6507 12.4793 26.486 13.6953 26.334 15.038C26.2073 16.3807 26.0807 17.774 25.954 19.218C25.6247 22.9167 25.308 25.9947 25.004 28.452C24.9787 28.9333 24.8773 29.3767 24.7 29.782C24.548 30.162 24.358 30.4533 24.13 30.656V30.694C24.6367 30.9473 25.1433 31.074 25.65 31.074C26.0047 31.074 26.3593 31.0107 26.714 30.884C27.094 30.732 27.3347 30.656 27.436 30.656C27.5373 30.656 27.6007 30.6813 27.626 30.732C27.6767 30.7827 27.702 30.884 27.702 31.036C27.702 31.3653 27.55 31.6947 27.246 32.024C26.2327 33.3413 25.2447 34 24.282 34C23.9273 34 23.4333 33.9113 22.8 33.734C22.724 33.7087 22.4833 33.6453 22.078 33.544C21.6727 33.4427 21.2673 33.392 20.862 33.392C20.33 33.392 19.8233 33.4933 19.342 33.696C18.886 33.8987 18.6073 34 18.506 34C18.3287 34 18.24 33.848 18.24 33.544C18.24 32.86 18.6453 32.2013 19.456 31.568L20.14 31.036C20.444 30.808 20.6467 30.6307 20.748 30.504C20.8747 30.352 20.9507 30.124 20.976 29.82L21.052 29.022C21.4573 24.614 21.736 21.84 21.888 20.7C22.04 19.5347 22.2047 18.154 22.382 16.558H22.344C21.28 18.2553 20.178 20.2187 19.038 22.448C17.898 24.6773 16.9733 26.704 16.264 28.528C15.7067 29.4653 15.048 30.3773 14.288 31.264C13.5533 32.1507 13.0467 32.594 12.768 32.594C12.692 32.594 12.6287 32.556 12.578 32.48C12.5527 32.3787 12.54 32.252 12.54 32.1C12.3373 30.276 12.1727 28.946 12.046 28.11C11.9447 27.2487 11.704 25.9567 11.324 24.234C11.1467 23.474 10.8807 22.3593 10.526 20.89C10.1967 19.4207 9.956 18.2807 9.804 17.47L9.766 17.432L7.448 28.946C7.42267 29.022 7.334 29.3007 7.182 29.782C7.05533 30.238 6.89067 30.5547 6.688 30.732V30.808C7.16933 30.9853 7.62533 31.074 8.056 31.074C8.436 31.074 8.76533 31.0107 9.044 30.884C9.348 30.732 9.55067 30.656 9.652 30.656C9.85467 30.656 9.956 30.7827 9.956 31.036C9.956 31.264 9.804 31.5933 9.5 32.024C8.94267 32.784 8.46133 33.3033 8.056 33.582C7.65067 33.8607 7.19467 34 6.688 34C6.33333 34 5.90267 33.8987 5.396 33.696C4.788 33.4933 4.28133 33.392 3.876 33.392C3.29333 33.392 2.76133 33.4933 2.28 33.696C1.79867 33.8987 1.52 34 1.444 34ZM33.7749 34.38C32.4575 34.38 31.7989 33.3793 31.7989 31.378C31.7989 30.618 31.9129 29.554 32.1409 28.186L33.3189 21.232C33.4202 20.7253 33.4709 20.2947 33.4709 19.94C33.4709 19.6107 33.3569 19.446 33.1289 19.446C32.8755 19.446 32.5969 19.6233 32.2929 19.978C32.0142 20.3073 31.6215 20.928 31.1149 21.84C31.0135 22.0427 30.8995 22.2327 30.7729 22.41C30.6462 22.562 30.5195 22.638 30.3929 22.638C30.1395 22.638 30.0129 22.4227 30.0129 21.992C30.0129 21.3333 30.3169 20.5227 30.9249 19.56C31.5329 18.572 32.2675 17.7233 33.1289 17.014C34.0155 16.2793 34.8642 15.912 35.6749 15.912C36.2322 15.912 36.6502 16.0893 36.9289 16.444C37.2329 16.7733 37.3849 17.2547 37.3849 17.888C37.3849 18.04 37.3595 18.2933 37.3089 18.648L35.6749 29.554V29.934C35.6749 30.1367 35.7002 30.2887 35.7509 30.39C35.8015 30.466 35.9029 30.504 36.0549 30.504C36.6375 30.504 37.3215 30.0353 38.1069 29.098C38.9175 28.1607 39.6649 26.97 40.3489 25.526C41.0329 24.0567 41.5142 22.5747 41.7929 21.08L42.1729 19.104C42.3502 18.1667 42.8189 17.4067 43.5789 16.824C44.3389 16.216 45.1749 15.912 46.0869 15.912C46.2895 15.912 46.4289 15.9373 46.5049 15.988C46.6062 16.0387 46.6569 16.14 46.6569 16.292C46.6569 16.3933 46.5935 16.596 46.4669 16.9C46.3402 17.204 46.2009 17.774 46.0489 18.61C45.8209 19.4967 45.1749 22.8027 44.1109 28.528C43.9842 29.0853 43.9209 29.6047 43.9209 30.086C43.9209 30.5673 44.0729 30.808 44.3769 30.808C44.7822 30.808 45.1242 30.5927 45.4029 30.162C45.6815 29.706 46.0869 28.9333 46.6189 27.844C46.7455 27.4893 46.8975 27.312 47.0749 27.312C47.3029 27.312 47.4169 27.5273 47.4169 27.958C47.4169 28.794 47.1382 29.7187 46.5809 30.732C46.0489 31.7453 45.3522 32.6067 44.4909 33.316C43.6295 34.0253 42.7682 34.38 41.9069 34.38C40.7162 34.38 40.1209 33.6327 40.1209 32.138C40.1209 31.4287 40.2475 30.4027 40.5009 29.06L40.4249 29.022C39.4369 30.5167 38.3475 31.7833 37.1569 32.822C35.9662 33.8607 34.8389 34.38 33.7749 34.38ZM52.188 34.38C51.352 34.38 50.6553 34.228 50.098 33.924C49.5406 33.62 49.1226 33.2653 48.844 32.86C48.5906 32.4293 48.4513 32.0367 48.426 31.682C48.35 31.226 48.464 30.7573 48.768 30.276C49.072 29.7693 49.49 29.3133 50.022 28.908C50.3513 28.6547 50.5793 28.528 50.706 28.528C50.8073 28.528 50.896 28.5913 50.972 28.718C51.0733 28.8193 51.162 28.9587 51.238 29.136C51.4913 29.8707 51.808 30.466 52.188 30.922C52.568 31.378 53.1253 31.606 53.86 31.606C54.468 31.606 54.962 31.4413 55.342 31.112C55.7473 30.7827 55.95 30.352 55.95 29.82C55.95 29.4907 55.836 29.098 55.608 28.642C55.38 28.1607 54.962 27.464 54.354 26.552L53.556 25.412C52.872 24.3987 52.4033 23.6513 52.15 23.17C51.922 22.6633 51.808 22.1567 51.808 21.65C51.808 20.6367 52.0993 19.6867 52.682 18.8C53.29 17.9133 54.0753 17.2167 55.038 16.71C56.026 16.178 57.0773 15.912 58.192 15.912C59.18 15.912 60.0033 16.1147 60.662 16.52C61.3206 16.9 61.65 17.4193 61.65 18.078C61.65 18.5593 61.4346 19.104 61.004 19.712C60.6746 20.1173 60.4086 20.32 60.206 20.32C60.1046 20.32 60.0286 20.2947 59.978 20.244C59.9273 20.1933 59.864 20.13 59.788 20.054C59.7373 19.9527 59.6866 19.864 59.636 19.788C59.0533 18.952 58.2933 18.534 57.356 18.534C56.748 18.534 56.254 18.6733 55.874 18.952C55.494 19.2307 55.304 19.6233 55.304 20.13C55.304 20.51 55.4053 20.8773 55.608 21.232C55.8106 21.5613 56.1273 21.992 56.558 22.524L57.204 23.36L58.078 24.5C58.5846 25.184 58.952 25.8047 59.18 26.362C59.408 26.894 59.522 27.4893 59.522 28.148C59.522 29.364 59.1293 30.4533 58.344 31.416C57.584 32.3533 56.6213 33.088 55.456 33.62C54.316 34.1267 53.2266 34.38 52.188 34.38ZM67.974 14.62C67.7967 14.62 67.6827 14.5947 67.632 14.544C67.5813 14.468 67.5687 14.3413 67.594 14.164L68.126 11.162C68.278 10.3513 68.6327 9.70533 69.19 9.224C69.7473 8.71733 70.5453 8.464 71.584 8.464H71.888C72.1667 8.464 72.2933 8.60333 72.268 8.882L71.736 11.884C71.432 13.708 70.2667 14.62 68.24 14.62H67.974ZM66.378 34.38C65.1367 34.38 64.516 33.544 64.516 31.872C64.516 31.416 64.5793 30.808 64.706 30.048L66.53 20.852C66.5807 20.396 66.606 20.1173 66.606 20.016C66.606 19.6613 66.492 19.484 66.264 19.484C66.036 19.484 65.77 19.674 65.466 20.054C65.162 20.4087 64.7693 21.004 64.288 21.84C64.2627 21.8907 64.1993 22.0047 64.098 22.182C64.022 22.334 63.946 22.448 63.87 22.524C63.794 22.6 63.718 22.638 63.642 22.638C63.414 22.638 63.3 22.4353 63.3 22.03C63.3 21.3207 63.604 20.4847 64.212 19.522C64.82 18.534 65.58 17.6853 66.492 16.976C67.404 16.2667 68.2907 15.912 69.152 15.912C70.216 15.912 70.748 16.6213 70.748 18.04C70.748 18.4453 70.6593 19.142 70.482 20.13L68.582 29.934C68.5313 30.1367 68.506 30.276 68.506 30.352C68.506 30.656 68.6453 30.808 68.924 30.808C69.2533 30.808 69.6207 30.542 70.026 30.01C70.4567 29.478 70.862 28.756 71.242 27.844C71.3687 27.4893 71.5207 27.312 71.698 27.312C71.926 27.312 72.04 27.5273 72.04 27.958C72.04 28.8447 71.7487 29.7947 71.166 30.808C70.5833 31.796 69.8487 32.6447 68.962 33.354C68.1007 34.038 67.2393 34.38 66.378 34.38ZM77.965 34.38C76.7237 34.38 75.7357 33.924 75.001 33.012C74.2917 32.0747 73.937 30.808 73.937 29.212C73.937 27.2867 74.431 25.2853 75.419 23.208C76.4323 21.1053 77.737 19.37 79.333 18.002C80.9543 16.6087 82.6137 15.912 84.311 15.912C85.0963 15.912 85.7297 16.0767 86.211 16.406C86.7177 16.71 86.971 17.128 86.971 17.66C86.971 18.04 86.7557 18.6227 86.325 19.408C86.1223 19.7627 85.907 19.94 85.679 19.94C85.5017 19.94 85.3497 19.864 85.223 19.712C84.539 19.028 83.7663 18.686 82.905 18.686C81.9677 18.686 81.119 19.0407 80.359 19.75C79.6243 20.4593 79.0417 21.4347 78.611 22.676C78.2057 23.892 78.003 25.26 78.003 26.78C78.003 28.148 78.1803 29.1487 78.535 29.782C78.915 30.39 79.5103 30.694 80.321 30.694C81.6637 30.694 82.8543 29.7567 83.893 27.882C84.0197 27.6033 84.121 27.426 84.197 27.35C84.2983 27.2487 84.4123 27.198 84.539 27.198C84.7923 27.198 84.919 27.426 84.919 27.882C84.919 28.7433 84.577 29.6933 83.893 30.732C83.209 31.7453 82.3223 32.6067 81.233 33.316C80.169 34.0253 79.0797 34.38 77.965 34.38Z" fill="white"/>
</svg>
