<svg width="16" height="16" viewBox="0 0 16 16" fill="none" xmlns="http://www.w3.org/2000/svg">
<path d="M8 8.00001C6.9 8.00001 5.95833 7.64098 5.175 6.92292C4.39167 6.20487 4 5.34167 4 4.33334C4 3.32501 4.39167 2.46181 5.175 1.74376C5.95833 1.0257 6.9 0.666672 8 0.666672C9.1 0.666672 10.0417 1.0257 10.825 1.74376C11.6083 2.46181 12 3.32501 12 4.33334C12 5.34167 11.6083 6.20487 10.825 6.92292C10.0417 7.64098 9.1 8.00001 8 8.00001ZM14 15.3333H2C1.45 15.3333 0.979333 15.154 0.588 14.7953C0.196 14.4359 0 14.0042 0 13.5V12.7667C0 12.2472 0.146 11.7696 0.438 11.3339C0.729334 10.8988 1.11667 10.5667 1.6 10.3375C2.63333 9.86389 3.68333 9.50853 4.75 9.27142C5.81667 9.03492 6.9 8.91667 8 8.91667C9.1 8.91667 10.1833 9.03492 11.25 9.27142C12.3167 9.50853 13.3667 9.86389 14.4 10.3375C14.8833 10.5667 15.2707 10.8988 15.562 11.3339C15.854 11.7696 16 12.2472 16 12.7667V13.5C16 14.0042 15.8043 14.4359 15.413 14.7953C15.021 15.154 14.55 15.3333 14 15.3333ZM2 13.5H14V12.7667C14 12.5986 13.9543 12.4458 13.863 12.3083C13.771 12.1708 13.65 12.0639 13.5 11.9875C12.6 11.575 11.6917 11.2655 10.775 11.0589C9.85833 10.853 8.93333 10.75 8 10.75C7.06667 10.75 6.14167 10.853 5.225 11.0589C4.30833 11.2655 3.4 11.575 2.5 11.9875C2.35 12.0639 2.22933 12.1708 2.138 12.3083C2.046 12.4458 2 12.5986 2 12.7667V13.5ZM8 6.16667C8.55 6.16667 9.021 5.987 9.413 5.62767C9.80433 5.26895 10 4.83751 10 4.33334C10 3.82917 9.80433 3.39773 9.413 3.03901C9.021 2.67967 8.55 2.50001 8 2.50001C7.45 2.50001 6.97933 2.67967 6.588 3.03901C6.196 3.39773 6 3.82917 6 4.33334C6 4.83751 6.196 5.26895 6.588 5.62767C6.97933 5.987 7.45 6.16667 8 6.16667Z" fill="#F9FAFB"/>
</svg>
