<svg width="48" height="48" viewBox="0 0 48 48" fill="none" xmlns="http://www.w3.org/2000/svg">
<path d="M6 20V28C6 29.1 6.9 30 8 30H14L20.58 36.58C21.84 37.84 24 36.94 24 35.16V12.82C24 11.04 21.84 10.14 20.58 11.4L14 18H8C6.9 18 6 18.9 6 20ZM33 24C33 20.46 30.96 17.42 28 15.94V32.04C30.96 30.58 33 27.54 33 24ZM28 8.89999V9.29999C28 10.06 28.5 10.72 29.2 11C34.36 13.06 38 18.12 38 24C38 29.88 34.36 34.94 29.2 37C28.48 37.28 28 37.94 28 38.7V39.1C28 40.36 29.26 41.24 30.42 40.8C37.2 38.22 42 31.68 42 24C42 16.32 37.2 9.77999 30.42 7.19999C29.26 6.73999 28 7.63999 28 8.89999Z" fill="#090909"/>
</svg>
