<svg width="48" height="48" viewBox="0 0 48 48" fill="none" xmlns="http://www.w3.org/2000/svg">
<g clip-path="url(#clip0_56_71)">
<path d="M40.12 20.28C41.24 21.2 42.88 21.12 43.9 20.1C45.08 18.92 45 16.96 43.7 15.9C36.52 10.02 27.3 7.83997 18.6 9.37997L23.78 14.56C29.56 14.5 35.38 16.4 40.12 20.28ZM35.58 23.94C34.02 22.8 32.32 21.94 30.54 21.34L36.44 27.24C36.92 26.08 36.64 24.7 35.58 23.94ZM27.9 32.46C25.46 31.2 22.54 31.2 20.08 32.46C18.9 33.08 18.68 34.7 19.62 35.64L22.56 38.58C23.34 39.36 24.6 39.36 25.38 38.58L28.32 35.64C29.3 34.7 29.1 33.08 27.9 32.46ZM39.36 35.8L8.24001 4.67997C7.46001 3.89997 6.20001 3.89997 5.42001 4.67997C4.64001 5.45997 4.64001 6.71997 5.42001 7.49997L10.1 12.2C8.08001 13.2 6.12001 14.42 4.32001 15.9C3.02001 16.96 2.94001 18.92 4.12001 20.1C5.14001 21.12 6.76001 21.22 7.86001 20.3C9.86001 18.66 12.06 17.38 14.36 16.44L18.82 20.9C16.56 21.5 14.4 22.5 12.44 23.92C11.06 24.92 10.98 26.94 12.18 28.14L12.2 28.16C13.18 29.14 14.72 29.24 15.86 28.42C18.24 26.74 21.02 25.9 23.8 25.84L36.54 38.58C37.32 39.36 38.58 39.36 39.36 38.58C40.14 37.84 40.14 36.58 39.36 35.8Z" fill="#090909"/>
</g>
<defs>
<clipPath id="clip0_56_71">
<rect width="48" height="48" fill="white"/>
</clipPath>
</defs>
</svg>
